<?xml version="1.0" encoding="UTF-8"?>
<svg width="489px" height="58px" viewBox="0 0 489 58" version="1.1" xmlns="http://www.w3.org/2000/svg" xmlns:xlink="http://www.w3.org/1999/xlink">
    <title>Logo Bollardscan FC</title>
    <defs>
        <polygon id="path-1" points="0.06 0.721 47.892 0.721 47.892 52.81 0.06 52.81"></polygon>
    </defs>
    <g id="Logo-Bollardscan-FC" stroke="none" stroke-width="1" fill="none" fill-rule="evenodd">
        <g id="Group-3" transform="translate(0.000000, 4.000000)">
            <mask id="mask-2" fill="white">
                <use xlink:href="#path-1"></use>
            </mask>
            <g id="Clip-2"></g>
            <path d="M26.798,52.81 L0,52.81 L0,0.721 L27.735,0.721 C31.955,0.721 46.487,1.092 46.487,13.668 C46.487,23.268 36.407,24.236 33.438,24.979 L33.438,26.914 L33.984,26.99 C38.75,27.66 47.892,29.072 47.892,39.119 C47.892,50.874 34.689,52.81 26.798,52.81 M23.048,8.759 L15,8.759 L15,21.78 L23.048,21.78 C27.97,21.78 30.391,20.291 30.391,15.306 C30.391,10.247 27.97,8.759 23.048,8.759 M24.298,30.561 L15,30.561 L15,44.625 L24.298,44.625 C29.61,44.625 32.187,42.988 32.187,37.555 C32.187,32.198 29.61,30.561 24.298,30.561" id="Fill-1" fill="#34514A" mask="url(#mask-2)"></path>
        </g>
        <path d="M76.144,58 C63.565,58 52.626,51.824 52.626,37.239 C52.626,22.06 62.471,16.554 76.144,16.554 C89.816,16.554 99.27,22.06 99.27,37.239 C99.27,51.824 88.722,58 76.144,58 M76.144,24.663 C68.02,24.663 67.315,30.915 67.315,37.239 C67.315,43.64 68.02,49.889 76.144,49.889 C84.27,49.889 84.581,43.64 84.581,37.239 C84.581,30.915 84.27,24.663 76.144,24.663" id="Fill-4" fill="#34514A"></path>
        <polyline id="Fill-5" fill="#34514A" points="98.494 0.331 98.494 4.372 106.15 4.372 106.15 56.812 120.761 56.812 120.761 0.331 98.494 0.331"></polyline>
        <polyline id="Fill-6" fill="#34514A" points="126.221 0.331 126.221 56.812 140.831 56.812 140.831 4.372 148.485 4.372 148.485 0.331 126.221 0.331"></polyline>
        <path d="M189.35,56.735 C185.6,57.107 176.849,57.999 167.942,57.999 C159.27,57.999 146.613,57.925 146.613,44.978 C146.613,33.445 158.957,32.7 169.895,32.7 L174.896,32.7 C174.818,27.714 174.272,25.109 164.973,25.109 C159.583,25.109 153.567,25.928 150.598,26.375 L150.598,18.489 C153.645,18.041 160.207,17.074 168.723,17.074 C178.335,17.074 189.35,18.041 189.35,30.17 L189.35,56.735 Z M175.131,40.217 C173.88,40.141 169.974,40.141 168.958,40.141 C165.051,40.141 161.145,40.439 161.145,45.276 C161.145,50.188 165.051,50.484 168.958,50.484 C170.911,50.484 173.256,50.337 175.131,50.039 L175.131,40.217 L175.131,40.217 Z" id="Fill-7" fill="#34514A"></path>
        <path d="M221.621,28.459 C218.106,28.459 213.808,28.757 211.23,30.468 L211.23,56.81 L196.62,56.81 L196.62,17.742 L209.823,17.742 L209.823,21.762 C216.699,17.371 221.31,17.371 225.684,17.371 L225.684,28.534 C224.747,28.534 223.261,28.459 221.621,28.459" id="Fill-8" fill="#34514A"></path>
        <path d="M274.165,56.661 C272.914,56.734 261.821,57.851 254.084,57.851 C249.007,57.851 243.772,57.851 239.552,56.065 C231.739,52.866 227.911,45.573 227.911,37.687 C227.911,29.874 231.585,21.985 239.398,18.71 C242.21,17.596 246.038,17.075 250.099,17.075 C253.303,17.075 256.507,17.297 259.555,17.669 L259.555,3.678 L274.165,3.678 L274.165,56.661 Z M259.633,25.929 C258.069,25.707 256.429,25.482 253.616,25.482 C245.96,25.482 243.383,30.766 243.383,37.836 C243.383,43.044 245.49,49.444 252.757,49.444 C255.805,49.444 257.758,49.295 259.633,49.07 L259.633,25.929 L259.633,25.929 Z" id="Fill-9" fill="#34514A"></path>
        <path d="M300.733,58 C292.217,58 284.95,56.81 280.808,56.14 L280.808,45.798 C283.31,46.392 292.606,48.105 299.247,48.105 C304.247,48.105 310.656,46.988 310.656,42.152 C310.656,36.868 301.827,37.017 297.215,36.271 C287.997,34.859 280.027,31.733 280.027,21.017 C280.027,5.092 297.137,3.68 305.031,3.68 C309.637,3.68 317.999,4.2 322.373,5.168 L322.373,15.362 C315.967,13.949 309.013,13.502 307.295,13.502 C304.169,13.502 295.732,13.873 295.732,19.157 C295.732,27.865 326.203,19.678 326.203,39.397 C326.203,53.982 313.311,58 300.733,58" id="Fill-10" fill="#E77B2B"></path>
        <path d="M368.981,48.03 L368.981,56.439 C364.996,57.258 360.854,57.629 356.715,57.629 C342.105,57.629 331.166,52.047 331.166,36.792 C331.166,22.953 340.776,16.85 354.759,16.85 C359.525,16.85 364.372,17.222 369.059,18.265 L369.059,26.377 C366.168,26.152 362.575,25.78 359.525,25.78 C350.385,25.78 345.852,28.608 345.852,37.24 C345.852,45.872 350.385,48.623 359.525,48.623 C363.902,48.623 366.168,48.252 368.981,48.03" id="Fill-11" fill="#E77B2B"></path>
        <path d="M415.394,56.735 C411.644,57.107 402.893,57.999 393.986,57.999 C385.314,57.999 372.657,57.925 372.657,44.978 C372.657,33.445 385.001,32.7 395.939,32.7 L400.94,32.7 C400.862,27.714 400.313,25.109 391.017,25.109 C385.627,25.109 379.611,25.928 376.642,26.375 L376.642,18.489 C379.689,18.041 386.251,17.074 394.767,17.074 C404.377,17.074 415.394,18.041 415.394,30.17 L415.394,56.735 Z M401.173,40.217 C399.924,40.141 396.018,40.141 395.002,40.141 C391.095,40.141 387.189,40.439 387.189,45.276 C387.189,50.188 391.095,50.484 395.002,50.484 C396.955,50.484 399.298,50.337 401.173,50.039 L401.173,40.217 L401.173,40.217 Z" id="Fill-12" fill="#E77B2B"></path>
        <path d="M450.867,56.81 L450.867,32.923 C450.867,30.914 450.554,27.046 445.086,27.046 C442.038,27.046 438.21,28.309 437.273,28.756 L437.273,56.81 L422.662,56.81 L422.662,17.744 L435.865,17.744 L435.865,21.762 L437.116,21.166 C441.882,19.008 446.258,17.075 452.821,17.075 C458.524,17.075 465.478,20.347 465.478,29.353 L465.478,56.81 L450.867,56.81" id="Fill-13" fill="#E77B2B"></path>
        <path d="M486.639,14.54 L486.639,5.457 L486.585,5.457 L482.842,14.54 L481.65,14.54 L477.906,5.457 L477.85,5.457 L477.85,14.54 L475.964,14.54 L475.964,3.663 L478.876,3.663 L482.286,11.927 L485.642,3.663 L488.525,3.663 L488.525,14.54 L486.639,14.54 Z M470.059,5.114 L470.059,14.54 L468.174,14.54 L468.174,5.114 L464.598,5.114 L464.598,3.663 L473.635,3.663 L473.635,5.114 L470.059,5.114 L470.059,5.114 Z" id="Fill-14" fill="#E77B2B"></path>
    </g>
</svg>